<svg width="150" height="150" viewBox="0 0 150 150" fill="none" xmlns="http://www.w3.org/2000/svg">
<path d="M121.875 18.75H107.812V14.0625C107.812 12.8193 107.319 11.627 106.44 10.7479C105.56 9.86886 104.368 9.375 103.125 9.375C101.882 9.375 100.69 9.86886 99.8104 10.7479C98.9314 11.627 98.4375 12.8193 98.4375 14.0625V18.75H51.5625V14.0625C51.5625 12.8193 51.0686 11.627 50.1896 10.7479C49.3105 9.86886 48.1182 9.375 46.875 9.375C45.6318 9.375 44.4395 9.86886 43.5604 10.7479C42.6814 11.627 42.1875 12.8193 42.1875 14.0625V18.75H28.125C25.6386 18.75 23.254 19.7377 21.4959 21.4959C19.7377 23.254 18.75 25.6386 18.75 28.125V121.875C18.75 124.361 19.7377 126.746 21.4959 128.504C23.254 130.262 25.6386 131.25 28.125 131.25H121.875C124.361 131.25 126.746 130.262 128.504 128.504C130.262 126.746 131.25 124.361 131.25 121.875V28.125C131.25 25.6386 130.262 23.254 128.504 21.4959C126.746 19.7377 124.361 18.75 121.875 18.75ZM42.1875 28.125V32.8125C42.1875 34.0557 42.6814 35.248 43.5604 36.1271C44.4395 37.0061 45.6318 37.5 46.875 37.5C48.1182 37.5 49.3105 37.0061 50.1896 36.1271C51.0686 35.248 51.5625 34.0557 51.5625 32.8125V28.125H98.4375V32.8125C98.4375 34.0557 98.9314 35.248 99.8104 36.1271C100.69 37.0061 101.882 37.5 103.125 37.5C104.368 37.5 105.56 37.0061 106.44 36.1271C107.319 35.248 107.812 34.0557 107.812 32.8125V28.125H121.875V46.875H28.125V28.125H42.1875ZM121.875 121.875H28.125V56.25H121.875V121.875ZM65.625 70.3125V107.812C65.625 109.056 65.1311 110.248 64.2521 111.127C63.373 112.006 62.1807 112.5 60.9375 112.5C59.6943 112.5 58.502 112.006 57.6229 111.127C56.7439 110.248 56.25 109.056 56.25 107.812V77.8945L53.6602 79.1953C52.5475 79.7516 51.2594 79.8432 50.0792 79.4498C48.8991 79.0564 47.9235 78.2103 47.3672 77.0977C46.8109 75.985 46.7193 74.6969 47.1127 73.5167C47.5061 72.3366 48.3522 71.361 49.4648 70.8047L58.8398 66.1172C59.5548 65.7594 60.3493 65.5905 61.1479 65.6264C61.9465 65.6623 62.7227 65.9018 63.4027 66.3222C64.0826 66.7426 64.6437 67.33 65.0327 68.0284C65.4217 68.7268 65.6256 69.5131 65.625 70.3125ZM100.289 88.1543L89.0625 103.125H98.4375C99.6807 103.125 100.873 103.619 101.752 104.498C102.631 105.377 103.125 106.569 103.125 107.812C103.125 109.056 102.631 110.248 101.752 111.127C100.873 112.006 99.6807 112.5 98.4375 112.5H79.6875C78.817 112.5 77.9636 112.258 77.2231 111.8C76.4826 111.342 75.8842 110.687 75.4949 109.909C75.1056 109.13 74.9408 108.259 75.0189 107.392C75.0971 106.525 75.4152 105.696 75.9375 105L92.8008 82.5176C93.1844 82.0069 93.4595 81.4233 93.6094 80.8025C93.7593 80.1817 93.7808 79.5368 93.6725 78.9074C93.5642 78.278 93.3284 77.6774 92.9796 77.1423C92.6308 76.6074 92.1764 76.1493 91.6442 75.7962C91.112 75.4431 90.5133 75.2026 89.8848 75.0892C89.2563 74.9759 88.6112 74.9922 87.9892 75.1371C87.3672 75.282 86.7814 75.5525 86.2677 75.9319C85.754 76.3114 85.3233 76.7918 85.002 77.3438C84.7032 77.8938 84.2974 78.3785 83.8083 78.7692C83.3193 79.1599 82.7569 79.4487 82.1544 79.6185C81.5519 79.7884 80.9216 79.8358 80.3004 79.7581C79.6793 79.6803 79.0801 79.479 78.538 79.1659C77.996 78.8528 77.5222 78.4343 77.1445 77.9352C76.7668 77.436 76.4929 76.8662 76.339 76.2595C76.1851 75.6527 76.1543 75.0213 76.2483 74.4024C76.3424 73.7836 76.5595 73.1899 76.8867 72.6562C78.4351 69.9767 80.8242 67.8828 83.6837 66.699C86.5431 65.5153 89.7132 65.3079 92.7025 66.1089C95.6918 66.91 98.3334 68.6748 100.218 71.1298C102.102 73.5847 103.124 76.5927 103.125 79.6875C103.135 82.7446 102.138 85.7199 100.289 88.1543Z" fill="black"/>
</svg>
